HIERARCHY
ROOT Hips
{
	OFFSET 0.000000 103.266502 0.000000
	CHANNELS 6 Xposition Yposition Zposition Xrotation Yrotation Zrotation 
	JOINT Spine
	{
		OFFSET -0.002400 12.777504 0.315300
		CHANNELS 3 Xrotation Yrotation Zrotation
		JOINT Spine1
		{
			OFFSET -0.002067 5.816869 0.032633
			CHANNELS 3 Xrotation Yrotation Zrotation
			JOINT Spine1_split
			{
				OFFSET -0.002067 5.816869 0.032633
				CHANNELS 3 Xrotation Yrotation Zrotation
				JOINT Spine2
				{
					OFFSET -0.002067 5.816869 0.032633
					CHANNELS 3 Xrotation Yrotation Zrotation
					JOINT Neck
					{
						OFFSET -0.003700 21.199493 -0.826900
						CHANNELS 3 Xrotation Yrotation Zrotation
						JOINT Head
						{
							OFFSET 0.000000 20.442200 4.834800
							CHANNELS 3 Xrotation Yrotation Zrotation
							JOINT HeadTop_End
							{
								OFFSET 0.000000 34.668396 4.968400
								CHANNELS 3 Xrotation Yrotation Zrotation
								End Site
								{
									OFFSET 0.000000 0.000000 0.000000
								}
							}
						}
					}
					JOINT LeftShoulder
					{
						OFFSET 3.288150 8.794197 -1.372250
						CHANNELS 3 Xrotation Yrotation Zrotation
						JOINT LeftShoulder_split
						{
							OFFSET 3.288150 8.794197 -1.372250
							CHANNELS 3 Xrotation Yrotation Zrotation
							JOINT LeftArm
							{
								OFFSET 11.953299 -2.279007 -0.146200
								CHANNELS 3 Xrotation Yrotation Zrotation
								JOINT LeftForeArm
								{
									OFFSET 18.448900 0.000000 0.000000
									CHANNELS 3 Xrotation Yrotation Zrotation
									JOINT LeftHand
									{
										OFFSET 29.527798 0.000000 0.000000
										CHANNELS 3 Xrotation Yrotation Zrotation
										JOINT LeftHandThumb1
										{
											OFFSET 10.739754 -2.369614 9.225399
											CHANNELS 3 Xrotation Yrotation Zrotation
											JOINT LeftHandThumb2
											{
												OFFSET 4.926170 -2.844131 2.844125
												CHANNELS 3 Xrotation Yrotation Zrotation
												JOINT LeftHandThumb3
												{
													OFFSET 4.614891 -2.664413 2.664409
													CHANNELS 3 Xrotation Yrotation Zrotation
													JOINT LeftHandThumb4
													{
														OFFSET 4.432465 -2.559082 2.559083
														CHANNELS 3 Xrotation Yrotation Zrotation
														End Site
														{
															OFFSET 0.000000 0.000000 0.000000
														}
													}
												}
											}
										}
										JOINT LeftHandIndex1
										{
											OFFSET 26.467674 0.187653 6.405298
											CHANNELS 3 Xrotation Yrotation Zrotation
											JOINT LeftHandIndex2
											{
												OFFSET 8.792900 0.000000 0.000000
												CHANNELS 3 Xrotation Yrotation Zrotation
												JOINT LeftHandIndex3
												{
													OFFSET 10.075203 0.000000 0.000000
													CHANNELS 3 Xrotation Yrotation Zrotation
													End Site
													{
														OFFSET 0.000000 0.000000 0.000000
													}
												}
											}
										}
										JOINT LeftHandMiddle1
										{
											OFFSET 25.764404 0.000000 0.000000
											CHANNELS 3 Xrotation Yrotation Zrotation
											JOINT LeftHandMiddle2
											{
												OFFSET 9.393974 0.000000 0.000000
												CHANNELS 3 Xrotation Yrotation Zrotation
												JOINT LeftHandMiddle3
												{
													OFFSET 10.771950 0.000000 0.000000
													CHANNELS 3 Xrotation Yrotation Zrotation
													End Site
													{
														OFFSET 0.000000 0.000000 0.000000
													}
												}
											}
										}
										JOINT LeftHandRing1
										{
											OFFSET 24.660927 0.144547 -6.225808
											CHANNELS 3 Xrotation Yrotation Zrotation
											JOINT LeftHandRing2
											{
												OFFSET 9.393799 0.000000 0.000000
												CHANNELS 3 Xrotation Yrotation Zrotation
												JOINT LeftHandRing3
												{
													OFFSET 9.928497 0.000000 0.000000
													CHANNELS 3 Xrotation Yrotation Zrotation
													End Site
													{
														OFFSET 0.000000 0.000000 0.000000
													}
												}
											}
										}
										JOINT LeftHandPinky1
										{
											OFFSET 23.655350 0.125290 -12.815412
											CHANNELS 3 Xrotation Yrotation Zrotation
											JOINT LeftHandPinky2
											{
												OFFSET 8.425102 0.000000 0.000000
												CHANNELS 3 Xrotation Yrotation Zrotation
												JOINT LeftHandPinky3
												{
													OFFSET 8.147003 0.000000 0.000000
													CHANNELS 3 Xrotation Yrotation Zrotation
													End Site
													{
														OFFSET 0.000000 0.000000 0.000000
													}
												}
											}
										}
									}
								}
							}
						}
					}
					JOINT RightShoulder
					{
						OFFSET -3.249400 8.794197 -1.372250
						CHANNELS 3 Xrotation Yrotation Zrotation
						JOINT RightShoulder_split
						{
							OFFSET -3.249400 8.794197 -1.372250
							CHANNELS 3 Xrotation Yrotation Zrotation
							JOINT RightArm
							{
								OFFSET -11.953299 -2.279007 -0.146200
								CHANNELS 3 Xrotation Yrotation Zrotation
								JOINT RightForeArm
								{
									OFFSET -18.448900 0.000000 0.000000
									CHANNELS 3 Xrotation Yrotation Zrotation
									JOINT RightHand
									{
										OFFSET -29.527802 0.000000 0.000000
										CHANNELS 3 Xrotation Yrotation Zrotation
										JOINT RightHandThumb1
										{
											OFFSET -10.739754 -2.369614 9.225399
											CHANNELS 3 Xrotation Yrotation Zrotation
											JOINT RightHandThumb2
											{
												OFFSET -4.926170 -2.844131 2.844125
												CHANNELS 3 Xrotation Yrotation Zrotation
												JOINT RightHandThumb3
												{
													OFFSET -4.614891 -2.664413 2.664409
													CHANNELS 3 Xrotation Yrotation Zrotation
													JOINT RightHandThumb4
													{
														OFFSET -4.432465 -2.559082 2.559083
														CHANNELS 3 Xrotation Yrotation Zrotation
														End Site
														{
															OFFSET 0.000000 0.000000 0.000000
														}
													}
												}
											}
										}
										JOINT RightHandIndex1
										{
											OFFSET -26.467674 0.187653 6.405298
											CHANNELS 3 Xrotation Yrotation Zrotation
											JOINT RightHandIndex2
											{
												OFFSET -8.792900 0.000000 0.000000
												CHANNELS 3 Xrotation Yrotation Zrotation
												JOINT RightHandIndex3
												{
													OFFSET -10.075203 0.000000 0.000000
													CHANNELS 3 Xrotation Yrotation Zrotation
													End Site
													{
														OFFSET 0.000000 0.000000 0.000000
													}
												}
											}
										}
										JOINT RightHandMiddle1
										{
											OFFSET -25.764404 0.000000 0.000000
											CHANNELS 3 Xrotation Yrotation Zrotation
											JOINT RightHandMiddle2
											{
												OFFSET -9.393974 0.000000 0.000000
												CHANNELS 3 Xrotation Yrotation Zrotation
												JOINT RightHandMiddle3
												{
													OFFSET -10.771950 0.000000 0.000000
													CHANNELS 3 Xrotation Yrotation Zrotation
													End Site
													{
														OFFSET 0.000000 0.000000 0.000000
													}
												}
											}
										}
										JOINT RightHandRing1
										{
											OFFSET -24.660927 0.144547 -6.225808
											CHANNELS 3 Xrotation Yrotation Zrotation
											JOINT RightHandRing2
											{
												OFFSET -9.393799 0.000000 0.000000
												CHANNELS 3 Xrotation Yrotation Zrotation
												JOINT RightHandRing3
												{
													OFFSET -9.928497 0.000000 0.000000
													CHANNELS 3 Xrotation Yrotation Zrotation
													End Site
													{
														OFFSET 0.000000 0.000000 0.000000
													}
												}
											}
										}
										JOINT RightHandPinky1
										{
											OFFSET -23.655350 0.125290 -12.815412
											CHANNELS 3 Xrotation Yrotation Zrotation
											JOINT RightHandPinky2
											{
												OFFSET -8.425102 0.000000 0.000000
												CHANNELS 3 Xrotation Yrotation Zrotation
												JOINT RightHandPinky3
												{
													OFFSET -8.147003 0.000000 0.000000
													CHANNELS 3 Xrotation Yrotation Zrotation
													End Site
													{
														OFFSET 0.000000 0.000000 0.000000
													}
												}
											}
										}
									}
								}
							}
						}
					}
				}
			}
		}
	}
	JOINT LeftUpLeg
	{
		OFFSET 11.394100 -6.187798 -0.413800
		CHANNELS 3 Xrotation Yrotation Zrotation
		JOINT LeftLeg
		{
			OFFSET 0.430247 -32.302673 3.732800
			CHANNELS 3 Xrotation Yrotation Zrotation
			JOINT LeftFoot
			{
				OFFSET -0.430247 -48.264931 -6.423300
				CHANNELS 3 Xrotation Yrotation Zrotation
				JOINT LeftToeBase
				{
					OFFSET 4.230900 -16.068199 23.438400
					CHANNELS 3 Xrotation Yrotation Zrotation
					JOINT LeftToe_End
					{
						OFFSET 4.510700 0.695400 19.974600
						CHANNELS 3 Xrotation Yrotation Zrotation
						End Site
						{
							OFFSET 0.000000 0.000000 0.000000
						}
					}
				}
			}
		}
	}
	JOINT RightUpLeg
	{
		OFFSET -11.333700 -6.187798 -0.413800
		CHANNELS 3 Xrotation Yrotation Zrotation
		JOINT RightLeg
		{
			OFFSET -0.430392 -32.302628 3.733000
			CHANNELS 3 Xrotation Yrotation Zrotation
			JOINT RightFoot
			{
				OFFSET 0.430392 -48.264973 -6.423500
				CHANNELS 3 Xrotation Yrotation Zrotation
				JOINT RightToeBase
				{
					OFFSET -4.230900 -16.068199 23.438400
					CHANNELS 3 Xrotation Yrotation Zrotation
					JOINT RightToe_End
					{
						OFFSET -4.510700 0.695400 19.974600
						CHANNELS 3 Xrotation Yrotation Zrotation
						End Site
						{
							OFFSET 0.000000 0.000000 0.000000
						}
					}
				}
			}
		}
	}
}
MOTION
Frames: 4
Frame Time: 0.016667
-0.068411 85.303497 -0.138232 -5.289863 -45.134382 -0.059713 9.456609 7.225525 -1.652133 2.187718 0.989894 -0.915630 0.000000 0.000000 0.000000 2.202832 0.982771 -0.894151 0.084651 13.220553 4.538680 8.920925 20.138135 -4.130230 0.000001 -0.000000 0.000001 1.117178 3.546353 -8.633311 0.000000 0.000000 0.000000 -53.487017 4.935511 -51.503000 0.000200 -106.358080 0.000223 1.988601 -7.706143 -15.869262 -6.141207 -11.690801 -6.761676 9.914123 42.595505 3.409835 -0.422792 8.108084 27.509106 -0.000000 0.000001 0.000000 0.255318 3.378221 -45.814320 5.654092 5.847758 -88.067476 0.000000 0.000001 -0.000000 -0.461473 3.841598 -39.722676 6.450747 5.820354 -95.892857 0.000000 -0.000001 -0.000000 0.469726 4.966828 -39.799444 8.181033 5.368614 -113.503011 0.000000 -0.000001 0.000001 -3.762427 9.063704 -45.253821 5.342530 5.829004 -85.005317 0.000001 -0.000001 0.000001 3.036127 13.027199 -5.371408 0.000000 0.000000 0.000000 -48.713712 27.172835 83.457064 -0.000210 105.988287 0.000213 -8.345349 17.548076 8.775677 -7.341100 13.749669 7.412334 9.855761 -44.489110 -3.903258 -0.115767 -14.513071 -28.973884 -0.000002 -0.000000 0.000001 -0.124375 -2.384787 45.108874 4.500591 -4.654552 88.071150 0.000001 0.000001 0.000000 -0.761620 -2.932905 39.031072 5.133891 -4.632761 95.881683 -0.000001 0.000000 0.000001 0.154758 -4.068811 39.122661 6.509726 -4.273597 113.462850 -0.000000 0.000001 0.000000 -4.198880 -8.025512 44.637779 4.252917 -4.639632 85.014825 0.000000 0.000000 -0.000001 -38.933601 5.287460 17.886047 58.809869 -5.660282 4.384342 -17.445886 -8.502707 -15.880120 -1.594033 -0.000010 0.000001 0.000000 -0.000000 -0.000000 -29.904914 -7.026593 -29.148987 58.363359 -9.468047 -7.709535 -19.429067 -5.380548 23.115197 -0.013000 0.000007 0.000003 0.000000 0.000000 0.000000 
-0.096386 85.175041 -0.406202 -5.394702 -45.400209 -0.130303 9.470503 7.316978 -1.512071 2.190248 1.012035 -0.889780 0.000000 0.000000 0.000000 2.204670 1.005822 -0.868759 0.085770 13.245572 4.386414 8.800629 20.230044 -4.209236 0.000000 -0.000000 0.000000 1.115726 3.626823 -8.693363 0.000000 0.000000 0.000000 -53.153669 4.985199 -51.684339 0.000316 -106.535242 0.000326 2.135040 -7.826409 -15.735521 -6.141205 -11.690803 -6.761678 9.914128 42.595505 3.409836 -0.422792 8.108086 27.509103 -0.000001 -0.000002 0.000002 0.255319 3.378218 -45.814327 5.654094 5.847757 -88.067469 0.000001 0.000001 0.000000 -0.461471 3.841596 -39.722679 6.450749 5.820353 -95.892857 0.000001 -0.000001 -0.000001 0.469727 4.966825 -39.799447 8.181034 5.368618 -113.503011 0.000002 -0.000001 0.000000 -3.762423 9.063699 -45.253821 5.342527 5.829004 -85.005317 0.000000 0.000000 0.000002 3.033765 13.290774 -5.488887 0.000000 0.000000 0.000000 -48.445586 26.967615 82.836466 0.000058 106.217262 -0.000048 -8.837566 17.355384 8.303452 -7.341098 13.749669 7.412336 9.855759 -44.489110 -3.903260 -0.115772 -14.513073 -28.973878 -0.000002 0.000000 0.000000 -0.124375 -2.384784 45.108878 4.500590 -4.654549 88.071150 0.000001 -0.000001 0.000001 -0.761620 -2.932902 39.031072 5.133891 -4.632761 95.881676 -0.000000 -0.000000 -0.000000 0.154758 -4.068809 39.122661 6.509732 -4.273596 113.462850 -0.000001 -0.000001 -0.000000 -4.198881 -8.025513 44.637776 4.252913 -4.639633 85.014818 0.000000 0.000001 0.000000 -39.563208 4.927345 17.978713 59.598359 -5.496618 4.492428 -16.751193 -8.367960 -16.058000 -2.134545 0.000005 0.000007 -0.000000 -0.000002 -0.000000 -30.348542 -6.998151 -29.069866 58.754619 -9.147452 -7.845805 -19.558371 -5.354958 23.144721 0.000798 0.000017 0.006829 -0.000000 -0.000001 0.000000 
-0.092805 85.036606 -0.638899 -5.526264 -45.690533 -0.233177 9.504105 7.381585 -1.359531 2.197573 1.027116 -0.862106 0.000000 0.000000 0.000000 2.211434 1.021828 -0.841506 0.080981 13.269773 4.242635 8.681403 20.313042 -4.292197 0.000001 0.000000 -0.000001 1.116596 3.696306 -8.750946 0.000000 0.000000 0.000000 -52.843022 5.031856 -51.853461 0.000159 -106.672385 0.000164 2.300291 -7.951178 -15.637954 -6.141207 -11.690804 -6.761682 9.914128 42.595505 3.409840 -0.422787 8.108088 27.509106 -0.000000 -0.000002 0.000001 0.255320 3.378220 -45.814327 5.654094 5.847759 -88.067469 0.000002 0.000001 0.000000 -0.461473 3.841599 -39.722673 6.450749 5.820355 -95.892864 0.000001 0.000001 0.000001 0.469727 4.966828 -39.799451 8.181035 5.368616 -113.503011 -0.000002 -0.000001 -0.000001 -3.762427 9.063705 -45.253825 5.342530 5.829003 -85.005317 0.000000 -0.000002 -0.000001 3.025578 13.532530 -5.623951 0.000000 0.000000 0.000000 -48.207765 26.760165 82.252990 0.000064 106.474269 -0.000062 -9.184490 17.196929 7.719686 -7.341099 13.749669 7.412333 9.855762 -44.489110 -3.903259 -0.115770 -14.513071 -28.973878 0.000000 -0.000004 0.000000 -0.124376 -2.384786 45.108874 4.500591 -4.654549 88.071157 0.000002 0.000000 0.000002 -0.761622 -2.932903 39.031068 5.133890 -4.632762 95.881676 0.000002 -0.000000 -0.000000 0.154758 -4.068806 39.122658 6.509728 -4.273596 113.462843 -0.000002 0.000000 0.000000 -4.198881 -8.025512 44.637776 4.252913 -4.639633 85.014825 0.000001 -0.000000 0.000002 -40.196141 4.535846 18.083044 60.469748 -5.258055 4.551588 -16.072787 -8.315334 -16.219590 -2.695578 -0.000007 0.000002 -0.000000 0.000001 0.000000 -30.848829 -6.992472 -28.998968 59.194196 -8.782500 -8.027799 -19.688657 -5.324254 23.075922 -0.027971 0.000005 -0.000006 0.000000 -0.000001 0.000000 
-0.060588 84.888481 -0.827540 -5.686401 -45.997277 -0.365920 9.552958 7.419203 -1.202574 2.208614 1.035266 -0.834416 0.000000 0.000000 0.000000 2.222027 1.030857 -0.814185 0.077829 13.290482 4.114898 8.569945 20.386125 -4.382671 -0.000001 -0.000000 0.000001 1.119850 3.753399 -8.805220 0.000000 0.000000 0.000000 -52.554802 5.073447 -52.013099 0.000053 -106.767571 0.000058 2.477035 -8.092267 -15.589507 -6.141207 -11.690804 -6.761679 9.914131 42.595508 3.409833 -0.422790 8.108086 27.509106 0.000001 0.000005 -0.000005 0.255320 3.378218 -45.814327 5.654090 5.847756 -88.067469 -0.000000 0.000001 0.000000 -0.461473 3.841597 -39.722676 6.450750 5.820355 -95.892864 0.000000 0.000002 0.000001 0.469727 4.966828 -39.799451 8.181036 5.368617 -113.503018 0.000001 -0.000001 -0.000000 -3.762424 9.063699 -45.253821 5.342526 5.829003 -85.005317 0.000001 -0.000000 -0.000000 3.012410 13.754819 -5.753861 0.000000 0.000000 0.000000 -47.992331 26.566308 81.688885 -0.000057 106.756246 0.000036 -9.402022 17.062723 7.024381 -7.341099 13.749665 7.412336 9.855762 -44.489107 -3.903261 -0.115769 -14.513071 -28.973874 0.000000 -0.000002 0.000001 -0.124375 -2.384786 45.108874 4.500594 -4.654553 88.071157 0.000001 0.000000 0.000000 -0.761621 -2.932904 39.031075 5.133892 -4.632764 95.881683 0.000002 -0.000002 0.000001 0.154757 -4.068812 39.122664 6.509728 -4.273599 113.462850 -0.000001 0.000000 0.000000 -4.198881 -8.025515 44.637779 4.252915 -4.639633 85.014818 -0.000002 -0.000003 0.000001 -40.858181 4.127549 18.166249 61.457926 -5.012243 4.598723 -15.380232 -8.268743 -16.339440 -3.280681 0.000005 -0.000004 -0.000000 0.000001 0.000000 -31.362487 -7.000393 -28.943623 59.645768 -8.374190 -8.245420 -19.812236 -5.292823 22.967179 -0.090330 0.000022 -0.000003 -0.000000 -0.000001 -0.000000 
